<svg width="32" height="32" viewBox="0 0 32 32" fill="none" xmlns="http://www.w3.org/2000/svg">
<rect width="32" height="32" rx="16" fill="black"/>
<path fill-rule="evenodd" clip-rule="evenodd" d="M15.192 8.906C15.4063 8.69178 15.697 8.57144 16 8.57144C16.303 8.57144 16.5937 8.69178 16.808 8.906L21.951 14.049C22.1571 14.265 22.2704 14.553 22.2669 14.8514C22.2634 15.1499 22.1433 15.4352 21.9322 15.6462C21.7212 15.8573 21.4359 15.9774 21.1374 15.9809C20.839 15.9844 20.551 15.871 20.335 15.665L17.143 12.473V22.286C17.143 22.5891 17.0226 22.8799 16.8082 23.0942C16.5939 23.3086 16.3031 23.429 16 23.429C15.6969 23.429 15.4061 23.3086 15.1918 23.0942C14.9774 22.8799 14.857 22.5891 14.857 22.286V12.473L11.665 15.665C11.5598 15.7752 11.4337 15.8633 11.294 15.9241C11.1542 15.9849 11.0038 16.0171 10.8514 16.0189C10.6991 16.0207 10.5479 15.992 10.4068 15.9345C10.2657 15.877 10.1375 15.7919 10.0298 15.6842C9.92206 15.5765 9.83695 15.4483 9.77947 15.3072C9.72199 15.1661 9.6933 15.0149 9.69509 14.8626C9.69688 14.7102 9.72911 14.5598 9.78989 14.42C9.85067 14.2803 9.93876 14.1542 10.049 14.049L15.192 8.906Z" fill="white"/>
</svg>
